<!-- 궁수 · 몸통과 머리 조각 42×48 · 허리(23,31)를 축으로 돕니다
     몸통 · 가슴끈 · 허리띠 · 두건 · 얼굴. 활을 잡은 앞팔은 여기 없습니다. -->
<svg xmlns="http://www.w3.org/2000/svg" width="42" height="48" viewBox="0 0 42 48">
  <defs>
    <radialGradient id="eyeglow-a" cx="50%" cy="50%" r="50%">
      <stop offset="0%" stop-color="#fff3c4" stop-opacity=".55"/>
      <stop offset="100%" stop-color="#fff3c4" stop-opacity="0"/>
    </radialGradient>
  </defs>
  <g stroke="#123018" stroke-width="1.5" stroke-linejoin="round" stroke-linecap="round">

    <!-- 화살통과 화살 깃 — 몸통과 한 덩어리입니다 -->
    <path d="M14 34 L19 21 L24 23 L20 36 q-3 2 -6 -2 z" fill="#5d4037"/>
    <path d="M15.6 32 L19.6 22 L21.6 22.8 L17.6 33 z" fill="#8d6e63" stroke="none"/>
    <path d="M16 25 q4 2 7 0" fill="none" stroke="#3e2723" stroke-width="1.1"/>
    <path d="M18.6 22 L10 9 M21 21 L13.6 7" fill="none" stroke="#8d6e63" stroke-width="1.2"/>
    <path d="M10 9 q-3.4 -3 -1.6 -5.4 q3.4 1.4 3.4 4.4 z" fill="#f5efe0" stroke-width="1.1"/>
    <path d="M13.6 7 q-2.4 -4 -0.4 -5.6 q3 2.2 2.2 5.2 z" fill="#a5d6a7" stroke-width="1.1"/>

    <path d="M17 18 q7 -3.5 13 0 q1.4 8 -0.8 14 q-6 2.4 -11.4 0 q-2.2 -6 -0.8 -14 z" fill="#43a047"/>
    <path d="M27 19 q3 1 3 5 q0 5 -1 8 q-2 1 -4 1.2 q2 -7 2 -14.2 z" fill="#1f5b2a" stroke="none"/>
    <path d="M18.6 19.6 q4 -1.6 7 -0.8 q0 6 -1 10.6 q-3 1 -4.6 0 q-1.6 -5 -1.4 -9.8 z"
          fill="#81c784" stroke="none"/>
    <path d="M18 21 q6.5 -1 11 4 l-1.6 2.8 q-4 -4.4 -10 -3.6 z" fill="#6d4c41"/>
    <circle cx="24" cy="24.6" r="1.2" fill="#ffc94d"/>
    <path d="M17.4 28.6 q6 3 11.8 0 l-0.8 3.4 q-5.4 2 -10.2 0 z" fill="#5d4037"/>
    <path d="M19 31.4 q2.6 1 4.6 0 l-0.4 3 q-2 0.8 -3.8 0 z" fill="#8d6e63"/>

    <path d="M13 18 q-1 -16 11 -16 q11 0 10 13 q-10 5 -21 3 z" fill="#2e7d32"/>
    <path d="M16 5 q-10 -1 -13 7 q8 -4 12 -2 z" fill="#1f5b2a"/>
    <path d="M15.4 6.6 q-6 0.6 -9 4.6 q5 -2.4 8.6 -1.6 z" fill="#2e7d32" stroke="none"/>
    <path d="M16.4 9 q2.4 -5.4 8.4 -5.4 q-5.4 1.4 -8.4 5.4 z" fill="#66bb6a" stroke="none"/>
    <path d="M14 15 q-0.6 -12 9.6 -12.6" fill="none" stroke="#ffffff" stroke-opacity=".3" stroke-width="1"/>

    <ellipse cx="27" cy="14.4" rx="5.2" ry="4.8" fill="#f4c08a"/>
    <path d="M31.4 13.6 q2 0.8 1.4 2.4 q-1 0.6 -1.8 0.2 z" fill="#f4c08a"/>
    <path d="M22 11 q5.4 -2.6 10.4 1.4 q-0.6 1.6 -1.6 2 q-4.4 -2.6 -8.8 -1 z"
          fill="#c98f5e" stroke="none"/>
    <path d="M21 9 q6 -2 10.6 3.4" fill="none" stroke="#1f5b2a" stroke-width="2.4"/>
    <circle cx="28.6" cy="14.2" r="3.2" fill="url(#eyeglow-a)" stroke="none"/>
    <circle cx="28.6" cy="14.2" r="1.5" fill="#123018" stroke="none"/>
    <circle cx="29.1" cy="13.7" r="0.5" fill="#ffffff" stroke="none"/>
    <path d="M26.4 18 q2 1 3.4 0" fill="none" stroke-width="0.9"/>
  </g>
</svg>
