<!-- 도적 · 망토 조각 40×48 · 어깨(22,19)를 축으로 돕니다
     원본 player-rogue.svg 에서 망토만 그대로 떼어 왔습니다.
     도적의 망토는 전사보다 크고 뾰족해서, 늦게 따라오는 것이 더 잘 보입니다. -->
<svg xmlns="http://www.w3.org/2000/svg" width="40" height="48" viewBox="0 0 40 48">
  <g stroke="#1e0f36" stroke-width="1.5" stroke-linejoin="round" stroke-linecap="round">
    <path d="M23 18 q-14 -4 -20 6 q7 -2 10 1 q-9 3 -11 12 q7 -2 11 -6 q-2 5 -1 8
             q6 -5 9 -12 z" fill="#5e35b1"/>
    <path d="M21 21 q-10 -1 -15 6 q8 -3 13 -1 z" fill="#7e57c2" stroke="none"/>
    <path d="M20 27 q-6 3 -9 9 q6 -4 10 -5 z" fill="#7e57c2" stroke="none"/>
    <path d="M17 24 q-6 2 -9 6 M18 31 q-4 3 -6 7" fill="none" stroke-width="0.9" stroke-opacity=".55"/>
    <path d="M22 18.6 q-11 -3 -17 5" fill="none" stroke="#ffffff" stroke-opacity=".3" stroke-width="1"/>
  </g>
</svg>
